<svg width="105" height="12" viewBox="0 0 105 12" fill="none" xmlns="http://www.w3.org/2000/svg">
<path d="M6.16711 8.48633V9.5H0.48938C0.481567 9.24609 0.522583 9.00195 0.612427 8.76758C0.756958 8.38086 0.987427 8 1.30383 7.625C1.62415 7.25 2.08508 6.81641 2.68665 6.32422C3.62024 5.55859 4.2511 4.95312 4.57922 4.50781C4.90735 4.05859 5.07141 3.63477 5.07141 3.23633C5.07141 2.81836 4.92102 2.4668 4.62024 2.18164C4.32336 1.89258 3.93469 1.74805 3.45422 1.74805C2.94641 1.74805 2.54016 1.90039 2.23547 2.20508C1.93079 2.50977 1.77649 2.93164 1.77258 3.4707L0.688599 3.35938C0.762817 2.55078 1.04211 1.93555 1.52649 1.51367C2.01086 1.08789 2.66125 0.875 3.47766 0.875C4.30188 0.875 4.95422 1.10352 5.43469 1.56055C5.91516 2.01758 6.1554 2.58398 6.1554 3.25977C6.1554 3.60352 6.08508 3.94141 5.94446 4.27344C5.80383 4.60547 5.56946 4.95508 5.24133 5.32227C4.91711 5.68945 4.3761 6.19336 3.61829 6.83398C2.98547 7.36523 2.57922 7.72656 2.39954 7.91797C2.21985 8.10547 2.07141 8.29492 1.95422 8.48633H6.16711ZM7.30383 5.26367C7.30383 4.24805 7.40735 3.43164 7.61438 2.81445C7.82532 2.19336 8.13586 1.71484 8.54602 1.37891C8.96008 1.04297 9.47961 0.875 10.1046 0.875C10.5656 0.875 10.9698 0.96875 11.3175 1.15625C11.6652 1.33984 11.9523 1.60742 12.1788 1.95898C12.4054 2.30664 12.5831 2.73242 12.712 3.23633C12.8409 3.73633 12.9054 4.41211 12.9054 5.26367C12.9054 6.27148 12.8019 7.08594 12.5948 7.70703C12.3878 8.32422 12.0773 8.80273 11.6632 9.14258C11.2531 9.47852 10.7335 9.64648 10.1046 9.64648C9.27649 9.64648 8.6261 9.34961 8.15344 8.75586C7.58704 8.04102 7.30383 6.87695 7.30383 5.26367ZM8.38782 5.26367C8.38782 6.67383 8.55188 7.61328 8.88 8.08203C9.21204 8.54688 9.62024 8.7793 10.1046 8.7793C10.589 8.7793 10.9952 8.54492 11.3234 8.07617C11.6554 7.60742 11.8214 6.66992 11.8214 5.26367C11.8214 3.84961 11.6554 2.91016 11.3234 2.44531C10.9952 1.98047 10.5851 1.74805 10.0929 1.74805C9.60852 1.74805 9.2218 1.95312 8.93274 2.36328C8.56946 2.88672 8.38782 3.85352 8.38782 5.26367ZM19.5265 8.48633V9.5H13.8488C13.8409 9.24609 13.882 9.00195 13.9718 8.76758C14.1163 8.38086 14.3468 8 14.6632 7.625C14.9835 7.25 15.4445 6.81641 16.046 6.32422C16.9796 5.55859 17.6105 4.95312 17.9386 4.50781C18.2667 4.05859 18.4308 3.63477 18.4308 3.23633C18.4308 2.81836 18.2804 2.4668 17.9796 2.18164C17.6827 1.89258 17.2941 1.74805 16.8136 1.74805C16.3058 1.74805 15.8995 1.90039 15.5948 2.20508C15.2902 2.50977 15.1359 2.93164 15.132 3.4707L14.048 3.35938C14.1222 2.55078 14.4015 1.93555 14.8859 1.51367C15.3702 1.08789 16.0206 0.875 16.837 0.875C17.6613 0.875 18.3136 1.10352 18.7941 1.56055C19.2745 2.01758 19.5148 2.58398 19.5148 3.25977C19.5148 3.60352 19.4445 3.94141 19.3038 4.27344C19.1632 4.60547 18.9288 4.95508 18.6007 5.32227C18.2765 5.68945 17.7355 6.19336 16.9777 6.83398C16.3448 7.36523 15.9386 7.72656 15.7589 7.91797C15.5792 8.10547 15.4308 8.29492 15.3136 8.48633H19.5265ZM26.2062 8.48633V9.5H20.5284C20.5206 9.24609 20.5616 9.00195 20.6515 8.76758C20.796 8.38086 21.0265 8 21.3429 7.625C21.6632 7.25 22.1241 6.81641 22.7257 6.32422C23.6593 5.55859 24.2902 4.95312 24.6183 4.50781C24.9464 4.05859 25.1105 3.63477 25.1105 3.23633C25.1105 2.81836 24.9601 2.4668 24.6593 2.18164C24.3624 1.89258 23.9738 1.74805 23.4933 1.74805C22.9855 1.74805 22.5792 1.90039 22.2745 2.20508C21.9698 2.50977 21.8156 2.93164 21.8116 3.4707L20.7277 3.35938C20.8019 2.55078 21.0812 1.93555 21.5656 1.51367C22.0499 1.08789 22.7003 0.875 23.5167 0.875C24.3409 0.875 24.9933 1.10352 25.4738 1.56055C25.9542 2.01758 26.1945 2.58398 26.1945 3.25977C26.1945 3.60352 26.1241 3.94141 25.9835 4.27344C25.8429 4.60547 25.6085 4.95508 25.2804 5.32227C24.9562 5.68945 24.4152 6.19336 23.6573 6.83398C23.0245 7.36523 22.6183 7.72656 22.4386 7.91797C22.2589 8.10547 22.1105 8.29492 21.9933 8.48633H26.2062ZM34.6261 0.763672C35.3683 0.763672 36.0929 0.955078 36.7999 1.33789C37.507 1.7168 38.0577 2.26172 38.4523 2.97266C38.8468 3.67969 39.0441 4.41797 39.0441 5.1875C39.0441 5.94922 38.8488 6.68164 38.4581 7.38477C38.0714 8.08789 37.5265 8.63477 36.8234 9.02539C36.1241 9.41211 35.3917 9.60547 34.6261 9.60547C33.8605 9.60547 33.1261 9.41211 32.423 9.02539C31.7238 8.63477 31.1788 8.08789 30.7882 7.38477C30.3976 6.68164 30.2023 5.94922 30.2023 5.1875C30.2023 4.41797 30.3995 3.67969 30.7941 2.97266C31.1925 2.26172 31.7452 1.7168 32.4523 1.33789C33.1593 0.955078 33.8839 0.763672 34.6261 0.763672ZM34.6261 1.49609C34.005 1.49609 33.3995 1.65625 32.8097 1.97656C32.2238 2.29297 31.7648 2.74805 31.4327 3.3418C31.1007 3.93164 30.9347 4.54688 30.9347 5.1875C30.9347 5.82422 31.0968 6.43555 31.421 7.02148C31.7491 7.60352 32.2062 8.05859 32.7921 8.38672C33.3781 8.71094 33.9894 8.87305 34.6261 8.87305C35.2628 8.87305 35.8741 8.71094 36.4601 8.38672C37.046 8.05859 37.5011 7.60352 37.8253 7.02148C38.1495 6.43555 38.3116 5.82422 38.3116 5.1875C38.3116 4.54688 38.1456 3.93164 37.8136 3.3418C37.4855 2.74805 37.0265 2.29297 36.4366 1.97656C35.8468 1.65625 35.2433 1.49609 34.6261 1.49609ZM36.0441 5.90234L36.7648 6.11328C36.6476 6.60156 36.3976 6.99219 36.0148 7.28516C35.6359 7.57422 35.1749 7.71875 34.632 7.71875C33.9445 7.71875 33.3859 7.49609 32.9562 7.05078C32.5265 6.60547 32.3116 5.98828 32.3116 5.19922C32.3116 4.68359 32.4093 4.23633 32.6046 3.85742C32.7999 3.47461 33.0773 3.1875 33.4366 2.99609C33.7999 2.80078 34.214 2.70312 34.6788 2.70312C35.1984 2.70312 35.63 2.82812 35.9738 3.07812C36.3175 3.32422 36.5519 3.66016 36.6769 4.08594L35.9796 4.25586C35.8624 3.9668 35.6886 3.74609 35.4581 3.59375C35.2316 3.4375 34.964 3.35938 34.6554 3.35938C34.2062 3.35938 33.8351 3.51953 33.5421 3.83984C33.2531 4.16016 33.1085 4.61914 33.1085 5.2168C33.1085 5.81445 33.2452 6.26758 33.5187 6.57617C33.796 6.88086 34.1534 7.0332 34.5909 7.0332C34.9425 7.0332 35.2511 6.93164 35.5167 6.72852C35.7823 6.52539 35.9581 6.25 36.0441 5.90234Z" fill="#F3F3F3"/>
<path d="M43.2511 9.5V0.910156H46.9015C47.8195 0.910156 48.4855 0.988281 48.8995 1.14453C49.3175 1.29688 49.6515 1.57031 49.9015 1.96484C50.1515 2.35937 50.2765 2.81055 50.2765 3.31836C50.2765 3.96289 50.087 4.49609 49.7081 4.91797C49.3292 5.33594 48.7628 5.59961 48.0089 5.70898C48.3839 5.92773 48.6925 6.16797 48.9347 6.42969C49.1808 6.69141 49.5109 7.15625 49.9249 7.82422L50.9738 9.5H48.8995L47.6456 7.63086C47.2003 6.96289 46.8956 6.54297 46.7316 6.37109C46.5675 6.19531 46.3937 6.07617 46.2101 6.01367C46.0265 5.94727 45.7355 5.91406 45.337 5.91406H44.9855V9.5H43.2511ZM44.9855 4.54297H46.2687C47.1007 4.54297 47.6202 4.50781 47.8273 4.4375C48.0343 4.36719 48.1964 4.24609 48.3136 4.07422C48.4308 3.90234 48.4894 3.6875 48.4894 3.42969C48.4894 3.14062 48.4113 2.9082 48.255 2.73242C48.1027 2.55273 47.8859 2.43945 47.6046 2.39258C47.464 2.37305 47.0421 2.36328 46.339 2.36328H44.9855V4.54297ZM51.9054 2.43359V0.910156H53.5519V2.43359H51.9054ZM51.9054 9.5V3.27734H53.5519V9.5H51.9054ZM54.6652 7.72461L56.3175 7.47266C56.3878 7.79297 56.5304 8.03711 56.7452 8.20508C56.9601 8.36914 57.2609 8.45117 57.6476 8.45117C58.0734 8.45117 58.3937 8.37305 58.6085 8.2168C58.7531 8.10742 58.8253 7.96094 58.8253 7.77734C58.8253 7.65234 58.7863 7.54883 58.7081 7.4668C58.6261 7.38867 58.4425 7.31641 58.1573 7.25C56.8292 6.95703 55.9874 6.68945 55.632 6.44727C55.1398 6.11133 54.8937 5.64453 54.8937 5.04688C54.8937 4.50781 55.1066 4.05469 55.5323 3.6875C55.9581 3.32031 56.6183 3.13672 57.5128 3.13672C58.3644 3.13672 58.9972 3.27539 59.4113 3.55273C59.8253 3.83008 60.1105 4.24023 60.2667 4.7832L58.714 5.07031C58.6476 4.82812 58.5206 4.64258 58.3331 4.51367C58.1495 4.38477 57.8859 4.32031 57.5421 4.32031C57.1085 4.32031 56.798 4.38086 56.6105 4.50195C56.4855 4.58789 56.423 4.69922 56.423 4.83594C56.423 4.95312 56.4777 5.05273 56.587 5.13477C56.7355 5.24414 57.2472 5.39844 58.1222 5.59766C59.0011 5.79688 59.6144 6.04102 59.962 6.33008C60.3058 6.62305 60.4777 7.03125 60.4777 7.55469C60.4777 8.125 60.2394 8.61523 59.7628 9.02539C59.2863 9.43555 58.5812 9.64062 57.6476 9.64062C56.7999 9.64062 56.1281 9.46875 55.632 9.125C55.1398 8.78125 54.8175 8.31445 54.6652 7.72461ZM61.8663 9.5V0.910156H63.5128V5.46875L65.4406 3.27734H67.4679L65.3409 5.55078L67.6202 9.5H65.8448L64.2804 6.70508L63.5128 7.50781V9.5H61.8663ZM68.6046 2.43359V0.910156H70.2511V2.43359H68.6046ZM68.6046 9.5V3.27734H70.2511V9.5H68.6046ZM73.6554 9.5L71.1476 3.27734H72.8761L74.048 6.45312L74.3878 7.51367C74.4777 7.24414 74.5343 7.06641 74.5577 6.98047C74.6124 6.80469 74.671 6.62891 74.7335 6.45312L75.9171 3.27734H77.6105L75.1378 9.5H73.6554ZM79.8546 5.17578L78.3605 4.90625C78.5284 4.30469 78.8175 3.85938 79.2277 3.57031C79.6378 3.28125 80.2472 3.13672 81.0558 3.13672C81.7902 3.13672 82.337 3.22461 82.6964 3.40039C83.0558 3.57227 83.3077 3.79297 83.4523 4.0625C83.6007 4.32812 83.6749 4.81836 83.6749 5.5332L83.6573 7.45508C83.6573 8.00195 83.6827 8.40625 83.7335 8.66797C83.7882 8.92578 83.8878 9.20312 84.0323 9.5H82.4034C82.3605 9.39062 82.3077 9.22852 82.2452 9.01367C82.2179 8.91602 82.1984 8.85156 82.1866 8.82031C81.9054 9.09375 81.6046 9.29883 81.2843 9.43555C80.964 9.57227 80.6222 9.64062 80.2589 9.64062C79.6183 9.64062 79.1124 9.4668 78.7413 9.11914C78.3741 8.77148 78.1906 8.33203 78.1906 7.80078C78.1906 7.44922 78.2745 7.13672 78.4425 6.86328C78.6105 6.58594 78.8448 6.375 79.1456 6.23047C79.4503 6.08203 79.8878 5.95312 80.4581 5.84375C81.2277 5.69922 81.7609 5.56445 82.0577 5.43945V5.27539C82.0577 4.95898 81.9796 4.73438 81.8234 4.60156C81.6671 4.46484 81.3722 4.39648 80.9386 4.39648C80.6456 4.39648 80.4171 4.45508 80.2531 4.57227C80.089 4.68555 79.9562 4.88672 79.8546 5.17578ZM82.0577 6.51172C81.8468 6.58203 81.5128 6.66602 81.0558 6.76367C80.5988 6.86133 80.2999 6.95703 80.1593 7.05078C79.9445 7.20312 79.837 7.39648 79.837 7.63086C79.837 7.86133 79.923 8.06055 80.0948 8.22852C80.2667 8.39648 80.4855 8.48047 80.7511 8.48047C81.048 8.48047 81.3312 8.38281 81.6007 8.1875C81.7999 8.03906 81.9308 7.85742 81.9933 7.64258C82.0363 7.50195 82.0577 7.23438 82.0577 6.83984V6.51172ZM85.257 3.27734H86.7921V4.19141C86.9913 3.87891 87.2609 3.625 87.6007 3.42969C87.9406 3.23438 88.3175 3.13672 88.7316 3.13672C89.4542 3.13672 90.0675 3.41992 90.5714 3.98633C91.0753 4.55273 91.3273 5.3418 91.3273 6.35352C91.3273 7.39258 91.0734 8.20117 90.5656 8.7793C90.0577 9.35352 89.4425 9.64062 88.7198 9.64062C88.3761 9.64062 88.0636 9.57227 87.7823 9.43555C87.505 9.29883 87.212 9.06445 86.9034 8.73242V11.8672H85.257V3.27734ZM86.8859 6.2832C86.8859 6.98242 87.0245 7.5 87.3019 7.83594C87.5792 8.16797 87.9171 8.33398 88.3156 8.33398C88.6984 8.33398 89.0167 8.18164 89.2706 7.87695C89.5245 7.56836 89.6515 7.06445 89.6515 6.36523C89.6515 5.71289 89.5206 5.22852 89.2589 4.91211C88.9972 4.5957 88.673 4.4375 88.2863 4.4375C87.8839 4.4375 87.5499 4.59375 87.2843 4.90625C87.0187 5.21484 86.8859 5.67383 86.8859 6.2832ZM93.8702 5.17578L92.3761 4.90625C92.5441 4.30469 92.8331 3.85938 93.2433 3.57031C93.6534 3.28125 94.2628 3.13672 95.0714 3.13672C95.8058 3.13672 96.3527 3.22461 96.712 3.40039C97.0714 3.57227 97.3234 3.79297 97.4679 4.0625C97.6163 4.32812 97.6906 4.81836 97.6906 5.5332L97.673 7.45508C97.673 8.00195 97.6984 8.40625 97.7491 8.66797C97.8038 8.92578 97.9034 9.20312 98.048 9.5H96.4191C96.3761 9.39062 96.3234 9.22852 96.2609 9.01367C96.2335 8.91602 96.214 8.85156 96.2023 8.82031C95.921 9.09375 95.6202 9.29883 95.2999 9.43555C94.9796 9.57227 94.6378 9.64062 94.2745 9.64062C93.6339 9.64062 93.1281 9.4668 92.757 9.11914C92.3898 8.77148 92.2062 8.33203 92.2062 7.80078C92.2062 7.44922 92.2902 7.13672 92.4581 6.86328C92.6261 6.58594 92.8605 6.375 93.1613 6.23047C93.4659 6.08203 93.9034 5.95312 94.4738 5.84375C95.2433 5.69922 95.7765 5.56445 96.0734 5.43945V5.27539C96.0734 4.95898 95.9952 4.73438 95.839 4.60156C95.6827 4.46484 95.3878 4.39648 94.9542 4.39648C94.6613 4.39648 94.4327 4.45508 94.2687 4.57227C94.1046 4.68555 93.9718 4.88672 93.8702 5.17578ZM96.0734 6.51172C95.8624 6.58203 95.5284 6.66602 95.0714 6.76367C94.6144 6.86133 94.3156 6.95703 94.1749 7.05078C93.9601 7.20312 93.8527 7.39648 93.8527 7.63086C93.8527 7.86133 93.9386 8.06055 94.1105 8.22852C94.2823 8.39648 94.5011 8.48047 94.7667 8.48047C95.0636 8.48047 95.3468 8.38281 95.6163 8.1875C95.8156 8.03906 95.9464 7.85742 96.0089 7.64258C96.0519 7.50195 96.0734 7.23438 96.0734 6.83984V6.51172ZM100.55 5.17578L99.0558 4.90625C99.2238 4.30469 99.5128 3.85938 99.923 3.57031C100.333 3.28125 100.943 3.13672 101.751 3.13672C102.485 3.13672 103.032 3.22461 103.392 3.40039C103.751 3.57227 104.003 3.79297 104.148 4.0625C104.296 4.32812 104.37 4.81836 104.37 5.5332L104.353 7.45508C104.353 8.00195 104.378 8.40625 104.429 8.66797C104.484 8.92578 104.583 9.20312 104.728 9.5H103.099C103.056 9.39062 103.003 9.22852 102.941 9.01367C102.913 8.91602 102.894 8.85156 102.882 8.82031C102.601 9.09375 102.3 9.29883 101.98 9.43555C101.659 9.57227 101.318 9.64062 100.954 9.64062C100.314 9.64062 99.8077 9.4668 99.4366 9.11914C99.0695 8.77148 98.8859 8.33203 98.8859 7.80078C98.8859 7.44922 98.9698 7.13672 99.1378 6.86328C99.3058 6.58594 99.5402 6.375 99.8409 6.23047C100.146 6.08203 100.583 5.95312 101.153 5.84375C101.923 5.69922 102.456 5.56445 102.753 5.43945V5.27539C102.753 4.95898 102.675 4.73438 102.519 4.60156C102.362 4.46484 102.068 4.39648 101.634 4.39648C101.341 4.39648 101.112 4.45508 100.948 4.57227C100.784 4.68555 100.651 4.88672 100.55 5.17578ZM102.753 6.51172C102.542 6.58203 102.208 6.66602 101.751 6.76367C101.294 6.86133 100.995 6.95703 100.855 7.05078C100.64 7.20312 100.532 7.39648 100.532 7.63086C100.532 7.86133 100.618 8.06055 100.79 8.22852C100.962 8.39648 101.181 8.48047 101.446 8.48047C101.743 8.48047 102.026 8.38281 102.296 8.1875C102.495 8.03906 102.626 7.85742 102.689 7.64258C102.732 7.50195 102.753 7.23438 102.753 6.83984V6.51172Z" fill="#FFBD00"/>
</svg>
