<svg width="61" height="74" viewBox="0 0 61 74" fill="none" xmlns="http://www.w3.org/2000/svg">
<path d="M59.6953 20.6793C58.3231 21.1835 56.8529 21.2353 55.4558 20.8286C54.0587 20.4219 52.7921 19.5734 51.8035 18.382C50.8149 17.1906 50.1449 15.7052 49.8715 14.0987C49.5981 12.4921 49.7325 10.8306 50.2592 9.30734L30.4933 0.5L10.7003 9.30734C11.2237 10.8275 11.3567 12.4848 11.0841 14.0872C10.8114 15.6897 10.1441 17.1717 9.15952 18.3617C8.17494 19.5517 6.91332 20.4009 5.52078 20.8111C4.12825 21.2213 2.66176 21.1756 1.29117 20.6793C-1.57894 34.3856 -2.51985 61.6139 30.4933 73.7C63.4996 61.6139 62.5655 34.3856 59.6953 20.6793Z" fill="url(#paint0_linear_1_1849)"/>
<path d="M13.9 25.3031V11.1898L10.6982 9.30859C11.2216 10.8288 11.3546 12.486 11.082 14.0885C10.8093 15.6909 10.142 17.1729 9.15741 18.3629C8.17283 19.5529 6.91121 20.4022 5.51867 20.8124C4.12614 21.2225 2.65965 21.1768 1.28906 20.6806L3.40781 24.1743L13.9 25.3031Z" fill="url(#paint1_linear_1_1849)"/>
<path d="M47.0859 11.1898V28.2517H53.0022L57.5781 24.1743L59.6969 20.6806C58.3247 21.1848 56.8544 21.2365 55.4573 20.8298C54.0602 20.4231 52.7936 19.5747 51.805 18.3832C50.8164 17.1918 50.1464 15.7064 49.873 14.0999C49.5996 12.4934 49.734 10.8318 50.2607 9.30859L47.0859 11.1898Z" fill="url(#paint2_linear_1_1849)"/>
<path d="M30.4922 70.4677V73.7004C63.4985 61.6142 62.5644 34.386 59.6943 20.6797L57.5755 24.1734L30.4922 70.4677Z" fill="url(#paint3_linear_1_1849)"/>
<path d="M30.4911 70.4663C2.7715 59.9006 1.18752 38.0243 3.41456 24.1721H3.64472C5.09429 24.1699 6.52722 23.8216 7.85034 23.1499C9.17346 22.4782 10.3571 21.4982 11.3244 20.2735C12.2917 19.0488 13.0209 17.6069 13.4647 16.0415C13.9084 14.4761 14.0567 12.8223 13.9 11.1876L30.4911 3.80078L47.0823 11.1876C46.9255 12.8229 47.074 14.4774 47.5181 16.0433C47.9623 17.6092 48.6921 19.0515 49.6601 20.2763C50.6281 21.5012 51.8126 22.481 53.1366 23.1523C54.4605 23.8235 55.8942 24.1709 57.3443 24.1721H57.5745C59.7948 38.0243 58.2108 59.9006 30.4911 70.4663Z" fill="url(#paint4_linear_1_1849)"/>
<g style="mix-blend-mode:overlay" opacity="0.9">
<path d="M57.5755 24.1738C57.5755 24.1738 57.6094 24.4042 57.6838 24.8495C57.7583 25.2949 57.8463 25.9476 57.9614 26.7845C58.0764 27.6215 58.1644 28.6274 58.2524 29.8022C58.345 31.1125 58.3766 32.4273 58.3472 33.7414C58.3254 35.3009 58.2192 36.8575 58.0291 38.4023C57.8271 40.1258 57.5126 41.8301 57.0881 43.5008C56.6287 45.2899 56.0471 47.0357 55.3485 48.7223C54.6148 50.4568 53.7544 52.1186 52.7762 53.6903C51.7834 55.2483 50.6858 56.7167 49.4932 58.0825C48.8839 58.7428 48.3018 59.4185 47.6655 60.0098C47.3541 60.3093 47.0495 60.6164 46.7381 60.9082L45.7837 61.7452C44.5637 62.7984 43.2937 63.7751 41.9794 64.6707C40.7204 65.5154 39.5155 66.2679 38.3647 66.8975C37.2139 67.5271 36.1444 68.057 35.1967 68.5177C34.2491 68.9784 33.3962 69.3316 32.6989 69.608L30.4922 70.468L32.6786 69.5466C33.3555 69.2548 34.1949 68.8402 35.1494 68.3948C35.6232 68.1645 36.1173 67.888 36.6453 67.627C37.1733 67.3659 37.7216 67.0664 38.2835 66.7286C39.4207 66.0912 40.6256 65.3311 41.8711 64.4787C43.1694 63.5735 44.4235 62.5892 45.628 61.5302L46.5689 60.6932L47.4827 59.7871C48.1123 59.1959 48.6809 58.5202 49.2833 57.8675C50.4546 56.5016 51.5318 55.0358 52.5054 53.483C53.4827 51.9362 54.3454 50.3002 55.0845 48.5917C56.446 45.3663 57.3593 41.9214 57.7921 38.3792C57.989 36.8527 58.1065 35.3143 58.1441 33.7721C58.1847 32.3285 58.1441 31.0078 58.1035 29.8406C58.0629 28.6735 57.9614 27.6522 57.8734 26.8229C57.7854 25.9937 57.7109 25.3333 57.6432 24.8879L57.5755 24.1738Z" fill="white"/>
</g>
<path d="M30.4922 0.5V3.80179L47.0834 11.1963L50.2581 9.31502L30.4922 0.5Z" fill="url(#paint5_linear_1_1849)"/>
<path style="mix-blend-mode:overlay" opacity="0.4" d="M0.0976562 29.456C0.282554 26.4984 0.681015 23.563 1.28903 20.6793C2.04795 20.9574 2.84039 21.0999 3.63792 21.1017C4.97692 21.1019 6.292 20.6991 7.44895 19.9345L46.8115 64.5855C43.6849 67.1611 40.3103 69.325 36.7526 71.0355L0.0976562 29.456ZM30.4911 0.5L17.2101 6.42019L56.9991 51.5549C59.8834 45.3086 61.2501 38.304 60.959 31.2604L36.008 2.96483L30.4911 0.5Z" fill="url(#paint6_linear_1_1849)"/>
<defs>
<linearGradient id="paint0_linear_1_1849" x1="-9.05208" y1="-33.0708" x2="65.3546" y2="64.9605" gradientUnits="userSpaceOnUse">
<stop stop-color="#AF6517"/>
<stop offset="0.26" stop-color="#E0A03B"/>
<stop offset="0.48" stop-color="#E9FF88"/>
<stop offset="0.64" stop-color="#E0A03B"/>
<stop offset="1" stop-color="#88390B"/>
</linearGradient>
<linearGradient id="paint1_linear_1_1849" x1="17.3522" y1="9.72324" x2="2.61514" y2="25.2981" gradientUnits="userSpaceOnUse">
<stop stop-color="#AF6517"/>
<stop offset="0.26" stop-color="#E0A03B"/>
<stop offset="0.48" stop-color="#E9FF88"/>
<stop offset="0.64" stop-color="#E0A03B"/>
<stop offset="1" stop-color="#88390B"/>
</linearGradient>
<linearGradient id="paint2_linear_1_1849" x1="46.145" y1="13.7468" x2="56.0343" y2="25.1093" gradientUnits="userSpaceOnUse">
<stop stop-color="#AF6517"/>
<stop offset="0.26" stop-color="#E0A03B"/>
<stop offset="0.48" stop-color="#E9FF88"/>
<stop offset="0.64" stop-color="#E0A03B"/>
<stop offset="1" stop-color="#88390B"/>
</linearGradient>
<linearGradient id="paint3_linear_1_1849" x1="59.2137" y1="-12.1693" x2="37.8949" y2="69.326" gradientUnits="userSpaceOnUse">
<stop stop-color="#AF6517"/>
<stop offset="0.26" stop-color="#E0A03B"/>
<stop offset="0.48" stop-color="#E9FF88"/>
<stop offset="0.64" stop-color="#E0A03B"/>
<stop offset="1" stop-color="#88390B"/>
</linearGradient>
<linearGradient id="paint4_linear_1_1849" x1="-20.8528" y1="-15.1039" x2="123.746" y2="96.299" gradientUnits="userSpaceOnUse">
<stop stop-color="#AF6517"/>
<stop offset="0.26" stop-color="#E0A03B"/>
<stop offset="0.48" stop-color="#E9FF88"/>
<stop offset="0.64" stop-color="#E0A03B"/>
<stop offset="1" stop-color="#88390B"/>
</linearGradient>
<linearGradient id="paint5_linear_1_1849" x1="2.29194" y1="-8.62216" x2="64.5556" y2="10.5631" gradientUnits="userSpaceOnUse">
<stop stop-color="#AF6517"/>
<stop offset="0.26" stop-color="#E0A03B"/>
<stop offset="0.48" stop-color="#E9FF88"/>
<stop offset="0.64" stop-color="#E0A03B"/>
<stop offset="1" stop-color="#88390B"/>
</linearGradient>
<linearGradient id="paint6_linear_1_1849" x1="-4.07891" y1="35.4453" x2="63.8706" y2="35.8928" gradientUnits="userSpaceOnUse">
<stop stop-color="white"/>
<stop offset="1" stop-color="#FAF7F5" stop-opacity="0"/>
</linearGradient>
</defs>
</svg>
